<?xml version="1.0" standalone="no"?>
<!DOCTYPE svg PUBLIC "-//W3C//DTD SVG 20010904//EN"
 "http://www.w3.org/TR/2001/REC-SVG-20010904/DTD/svg10.dtd">
<svg version="1.0" xmlns="http://www.w3.org/2000/svg"
 width="953.000000pt" height="878.000000pt" viewBox="0 0 953.000000 878.000000"
 preserveAspectRatio="xMidYMid meet">

<g transform="translate(0.000000,878.000000) scale(0.100000,-0.100000)"
fill="#023047" stroke="none">
<path d="M2070 8724 c-71 -9 -233 -46 -308 -71 -500 -166 -863 -654 -982
-1323 -34 -189 -41 -316 -47 -832 l-6 -528 -278 0 -279 0 0 -510 0 -510 280 0
280 0 0 -1440 0 -1440 675 0 675 0 0 1440 0 1440 267 -2 267 -3 629 -1120
c346 -616 631 -1129 634 -1140 3 -17 -396 -792 -1253 -2433 l-85 -162 778 0
778 1 1259 2417 c693 1329 1264 2423 1269 2429 7 10 56 13 183 13 l173 0 4
-872 c4 -938 4 -938 58 -1158 41 -163 121 -347 214 -491 123 -190 349 -345
606 -417 158 -44 273 -55 514 -49 247 6 392 28 582 88 117 38 343 135 343 148
0 11 -328 1072 -333 1077 -2 3 -26 -9 -53 -25 -63 -39 -151 -69 -238 -82 -134
-19 -226 33 -285 162 -58 123 -61 170 -61 930 l0 689 410 0 410 0 0 510 0 510
-410 0 -410 0 0 730 0 730 -675 0 -675 0 0 -723 0 -724 -422 -6 c-232 -4 -541
-7 -687 -7 l-266 -1 -459 -990 c-253 -544 -463 -992 -466 -994 -4 -3 -247 437
-540 978 -293 540 -538 987 -544 994 -8 9 -200 14 -764 19 l-754 7 5 536 c3
437 7 553 20 627 33 180 73 269 148 323 70 52 130 66 259 64 126 -2 228 -23
331 -69 33 -15 61 -25 63 -23 9 9 466 930 466 938 0 14 -198 137 -282 175
-117 53 -341 122 -479 146 -93 17 -172 23 -314 25 -104 2 -206 1 -225 -1z"/>
</g>
</svg>
