<svg width="720" height="602" viewBox="0 0 720 602" fill="none" xmlns="http://www.w3.org/2000/svg">
<g id="OBJECTS">
<g id="Group">
<path id="Vector" opacity="0.4" d="M719.249 107.944C695.318 120.58 689.333 127.28 664.729 138.178C639.774 149.231 608.364 154.914 582.013 147.866C554.518 140.511 534.635 112.231 509.066 99.8535C498.915 94.9398 488.013 92.2426 477.071 90.4286C455.816 86.9019 433.744 86.6777 413.227 93.8155C381.845 104.733 356.82 134.146 346.359 168.669C333.67 210.545 346.905 251.904 352.675 293.637C357.243 326.681 356.052 360.708 349.186 393.253C345.717 409.698 340.668 426.078 331.522 439.532C321.058 454.928 305.83 465.552 289.834 472.905C253.54 489.589 211.644 490.474 174.812 475.336C163.772 470.799 153.167 464.884 141.836 461.36C85.4289 443.819 19.1598 455.441 4.49442 527.1C-2.00979 558.878 -0.778751 569.814 3.89813 601.992H719.249V107.944Z" fill="#06492A"/>
<g id="Group_2">
<g id="Group_3">
<path id="Vector_2" d="M452.434 404.778L343.477 401.948V234.963L452.434 240.623V404.778Z" fill="#D39A35"/>
<path id="Vector_3" d="M343.477 234.963L330.375 240.623V407.609L343.477 401.948V234.963Z" fill="#AA7B2E"/>
<path id="Vector_4" d="M448.988 415.044L343.136 401.948V234.963L448.988 248.057V415.044Z" fill="#DBC09A"/>
<path id="Vector_5" d="M446.659 416.907L340.807 403.078V236.092L446.659 250.67V416.907Z" fill="#FFE0AE"/>
<path id="Vector_6" d="M445.108 418.876L339.255 403.582V236.596L445.108 251.89V418.876Z" fill="#DBC09A"/>
<path id="Vector_7" d="M442.78 420.74L336.927 404.712V237.726L442.78 253.754V420.74Z" fill="#FFE0AE"/>
<path id="Vector_8" d="M440.513 422.475L334.659 405.812V238.826L440.513 255.489V422.475Z" fill="#DBC09A"/>
<path id="Vector_9" d="M438.125 424.035L332.271 406.639V239.654L438.125 257.049V424.035Z" fill="#FFE0AE"/>
<path id="Vector_10" d="M433.815 429.239L330.375 407.609V240.623L433.815 262.253V429.239Z" fill="#FCBE3A"/>
</g>
<g id="Group_4">
<g id="Group_5">
<path id="Vector_11" d="M284.872 345.777V441.145C284.872 449.003 302.256 455.374 323.701 455.374C345.145 455.374 362.53 449.004 362.53 441.145V345.777H284.872Z" fill="#38ABF2"/>
<path id="Vector_12" d="M323.701 360.007C345.145 360.007 362.53 353.636 362.53 345.777C362.53 337.919 345.145 331.548 323.701 331.548C302.256 331.548 284.872 337.919 284.872 345.777C284.872 353.636 302.256 360.007 323.701 360.007Z" fill="#22627C"/>
</g>
<g id="Group_6">
<g id="Clip path group">
<mask id="mask0_3499_3205" style="mask-type:luminance" maskUnits="userSpaceOnUse" x="276" y="237" width="96" height="124">
<g id="SVGID_00000159445878722905909470000001055951021062916798_">
<path id="Vector_13" d="M362.53 345.778C362.53 353.636 345.145 360.007 323.701 360.007C302.256 360.007 284.871 353.637 284.871 345.778C284.871 337.919 250.873 234.485 323.701 237.625C399.63 240.898 362.53 337.918 362.53 345.778Z" fill="white"/>
</g>
</mask>
<g mask="url(#mask0_3499_3205)">
<path id="Vector_14" d="M323.7 360.005C345.144 360.005 362.529 354.326 362.529 347.32C362.529 340.313 345.144 334.634 323.7 334.634C302.255 334.634 284.871 340.313 284.871 347.32C284.871 354.326 302.255 360.005 323.7 360.005Z" fill="#2F86B2"/>
</g>
</g>
<g id="Clip path group_2">
<mask id="mask1_3499_3205" style="mask-type:luminance" maskUnits="userSpaceOnUse" x="276" y="237" width="96" height="124">
<g id="SVGID_00000159445878722905909470000001055951021062916798__2">
<path id="Vector_15" d="M362.53 345.778C362.53 353.636 345.145 360.007 323.701 360.007C302.256 360.007 284.871 353.637 284.871 345.778C284.871 337.919 250.873 234.485 323.701 237.625C399.63 240.898 362.53 337.918 362.53 345.778Z" fill="white"/>
</g>
</mask>
<g mask="url(#mask1_3499_3205)">
<g id="Group_7">
<g id="Group_8">
<path id="Vector_16" d="M296.724 273.781L305.066 288.941L317.204 382.055C317.399 383.553 317.109 385.078 316.387 386.357C313.598 391.294 306.828 389.75 305.99 383.987L292.603 291.884L296.724 273.781Z" fill="#E84B38"/>
<path id="Vector_17" d="M313.755 388.85L302.666 296.314L301.081 288.848L297.245 289.384L296.959 297.927L309.301 388.76C310.698 389.437 312.317 389.505 313.755 388.85Z" fill="#A0302A"/>
<path id="Vector_18" d="M298.641 290.933L302.667 296.314L305.066 288.94L296.724 273.781L292.603 291.882L296.961 297.927L298.641 290.933Z" fill="#FFD1AB"/>
<path id="Vector_19" d="M295.26 280.21C296.461 280.499 297.715 280.513 298.914 280.212C299.329 280.108 299.662 279.903 299.956 279.654L296.724 273.781L295.26 280.21Z" fill="#E84B38"/>
</g>
<g id="Group_9">
<path id="Vector_20" d="M319.204 262.778L325.771 278.992L327.321 373.074C327.346 374.587 326.887 376.06 326.026 377.226C322.702 381.729 316.161 379.246 315.979 373.41L313.076 280.155L319.204 262.778Z" fill="#E8A938"/>
<path id="Vector_21" d="M323.134 379.33L322.56 285.97L321.829 278.339L317.964 278.33L316.718 286.766L318.728 378.614C320.036 379.48 321.632 379.777 323.134 379.33Z" fill="#A0712A"/>
<path id="Vector_22" d="M319.174 280.064L322.56 285.969L325.771 278.992L319.204 262.778L313.076 280.155L316.718 286.766L319.174 280.064Z" fill="#FFD1AB"/>
<path id="Vector_23" d="M317.027 268.95C318.187 269.406 319.429 269.597 320.652 269.466C321.075 269.422 321.428 269.265 321.748 269.061L319.204 262.778L317.027 268.95Z" fill="#E8A938"/>
</g>
<g id="Group_10">
<path id="Vector_24" d="M343.354 266.277L347.334 283.511L334.416 376.493C334.209 377.988 333.53 379.35 332.502 380.335C328.537 384.135 322.474 380.433 323.191 374.648L334.648 282.219L343.354 266.277Z" fill="#7838E8"/>
<path id="Vector_25" d="M329.332 381.852L343.099 289.767L343.549 282.11L339.742 281.361L337.22 289.432L325.099 380.302C326.257 381.407 327.785 382.006 329.332 381.852Z" fill="#4B2AA0"/>
<path id="Vector_26" d="M340.669 283.299L343.1 289.767L347.334 283.51L343.354 266.277L334.648 282.219L337.222 289.431L340.669 283.299Z" fill="#FFD1AB"/>
<path id="Vector_27" d="M340.261 271.939C341.332 272.61 342.528 273.036 343.752 273.143C344.176 273.18 344.547 273.094 344.895 272.954L343.353 266.277L340.261 271.939Z" fill="#7838E8"/>
</g>
</g>
</g>
</g>
</g>
</g>
<g id="Group_11">
<path id="Vector_28" d="M284.674 462.422C297.712 447.845 297.712 424.212 284.674 409.635C271.635 395.058 250.495 395.058 237.456 409.635C224.418 424.212 224.418 447.845 237.456 462.422C250.495 476.998 271.635 476.998 284.674 462.422Z" fill="#FCBE3A"/>
<path id="Vector_29" d="M255.682 413.873C255.682 413.873 268.029 387.777 293.888 401.24C293.888 401.24 278.082 424.472 255.682 413.873Z" fill="#4E6D30"/>
<path id="Vector_30" d="M255.286 414.549C255.286 414.549 246.32 380.786 278.408 368.125C278.408 368.125 282.288 402.674 255.286 414.549Z" fill="#68993D"/>
</g>
<g id="Group_12" opacity="0.8">
<path id="Vector_31" d="M326.803 475.889L478.444 421.767L430.775 242.698L427.629 243.821L326.803 475.889ZM454.491 407.012L367.447 438.079L425.322 304.868L454.491 407.012Z" fill="#93521D"/>
<path id="Vector_32" d="M329.949 474.766L481.589 420.644L430.774 242.698L329.949 474.766ZM457.637 405.889L370.593 436.956L428.469 303.745L457.637 405.889Z" fill="#E8872E"/>
</g>
<g id="Group_13">
<path id="Vector_33" d="M388.583 476.765L541.669 478.72L680.275 431.485L516.886 429.398C512.817 429.346 508.764 429.995 504.87 431.323L387.87 471.196C385.086 472.143 385.673 476.728 388.583 476.765Z" fill="#C13725"/>
<path id="Vector_34" d="M544.191 474.823L392.441 472.885L396.188 470.506L392.485 468.55L396.222 467.037L392.521 465.084L396.257 463.744L392.551 462.137L396.29 460.451L392.588 458.497L396.332 456.29L392.638 453.643L396.393 450.396L392.698 447.75L396.448 445.023L392.752 442.549L396.5 439.996L392.8 437.869L396.549 435.142L392.852 432.668L396.603 429.826L544.632 431.717L544.191 474.823Z" fill="#FFE0AE"/>
<path id="Vector_35" d="M389.043 431.694L542.129 433.65L680.735 386.415L517.346 384.327C513.277 384.275 509.224 384.925 505.33 386.252L388.33 426.125C385.546 427.072 386.133 431.657 389.043 431.694Z" fill="#FA4D24"/>
<path id="Vector_36" d="M542.129 433.65L541.669 478.72L680.274 431.485L680.735 386.415L542.129 433.65Z" fill="#EB7547"/>
</g>
<path id="Vector_37" d="M283.468 85.5825C283.468 85.5825 291.83 33.3877 330.155 33.3877C368.481 33.3877 373.359 59.4859 373.359 59.4859C373.359 59.4859 391.477 50.786 397.515 68.9645C397.515 68.9645 427.015 58.317 427.015 85.584L283.468 85.5825Z" fill="white"/>
<path id="Vector_38" d="M577.372 146.658C577.372 146.658 579.879 131.831 592.411 132.831C592.411 132.831 596.589 109.26 616.641 121.545C616.641 121.545 629.174 83.8745 650.897 87.8711C672.62 91.8678 683.483 121.545 683.483 121.545C683.483 121.545 706.041 119.176 706.041 146.486L577.372 146.658Z" fill="white"/>
<g id="Group_14">
<path id="Vector_39" d="M400.648 428.18L541.464 429.979L668.96 386.53L518.668 384.61C514.924 384.562 511.196 385.158 507.614 386.38L399.991 423.056C397.43 423.93 397.972 428.146 400.648 428.18Z" fill="#604FC1"/>
<path id="Vector_40" d="M543.784 426.393L404.197 424.612L407.643 422.423L404.239 420.624L407.676 419.234L404.27 417.436L407.706 416.204L404.298 414.724L407.738 413.175L404.332 411.376L407.776 409.347L404.379 406.912L407.831 403.926L404.434 401.49L407.882 398.982L404.482 396.707L407.93 394.359L404.526 392.402L407.976 389.894L404.575 387.619L408.025 385.004L544.189 386.743L543.784 426.393Z" fill="#FFE0AE"/>
<path id="Vector_41" d="M401.07 386.723L541.886 388.522L669.382 345.073L519.09 343.153C515.346 343.105 511.617 343.701 508.037 344.923L400.414 381.599C397.854 382.472 398.394 386.688 401.07 386.723Z" fill="#845BFA"/>
<path id="Vector_42" d="M541.888 388.522L541.464 429.978L668.96 386.529L669.384 345.071L541.888 388.522Z" fill="#3A3072"/>
</g>
<g id="Group_15">
<g id="Group_16">
<path id="Vector_43" d="M612.294 346.968L613.183 348.188C605.855 345.849 591 344.247 573.854 344.247C556.568 344.247 541.612 345.875 534.349 348.245V346.97H529.661V351.492C529.661 355.493 549.447 358.736 573.854 358.736C598.26 358.736 618.046 355.493 618.046 351.492V346.97H612.294V346.968Z" fill="#FFCF7B"/>
<path id="Vector_44" d="M618.047 346.968C618.047 350.97 598.261 354.212 573.855 354.212C549.448 354.212 529.662 350.97 529.662 346.968C529.662 342.969 549.448 339.725 573.855 339.725C598.261 339.725 618.047 342.969 618.047 346.968Z" fill="#FCBE3A"/>
</g>
<g id="Group_17">
<path id="Vector_45" d="M596.33 343.634L596.849 344.347C592.565 342.98 583.881 342.043 573.855 342.043C563.75 342.043 555.005 342.994 550.758 344.381V343.636H548.017V346.279C548.017 348.619 559.585 350.514 573.855 350.514C588.125 350.514 599.693 348.619 599.693 346.279V343.636H596.33V343.634Z" fill="#D89C3A"/>
<path id="Vector_46" d="M573.856 347.869C588.126 347.869 599.694 345.973 599.694 343.634C599.694 341.295 588.126 339.399 573.856 339.399C559.586 339.399 548.018 341.295 548.018 343.634C548.018 345.973 559.586 347.869 573.856 347.869Z" fill="#C48F31"/>
</g>
<g id="Group_18">
<path id="Vector_47" d="M573.855 344.895C572.201 344.895 570.858 343.396 570.858 341.545V183.748C570.858 181.899 572.199 180.398 573.855 180.398C575.509 180.398 576.852 181.898 576.852 183.748V341.545C576.852 343.394 575.509 344.895 573.855 344.895Z" fill="#FCBE3A"/>
</g>
<g id="Group_19">
<path id="Vector_48" d="M573.855 328.478C608.255 328.478 636.141 297.302 636.141 258.845C636.141 220.388 608.255 189.212 573.855 189.212C539.456 189.212 511.569 220.388 511.569 258.845C511.569 297.302 539.456 328.478 573.855 328.478Z" fill="#38ABF2"/>
</g>
<g id="Group_20">
<path id="Vector_49" d="M573.856 336.381V333.73C610.792 333.73 640.84 300.138 640.84 258.845C640.84 217.553 610.792 183.961 573.856 183.961V181.31C612.1 181.31 643.211 216.092 643.211 258.845C643.211 301.598 612.1 336.381 573.856 336.381Z" fill="#FCBE3A"/>
</g>
<g id="Group_21">
<g id="Group_22">
<g id="Group_23">
<path id="Vector_50" d="M536.607 206.305C539.86 207.323 542.997 209.636 545.674 208.722C547.555 208.082 548.554 205.554 550.452 204.976C551.714 204.592 553.033 205.179 554.237 205.753C557.694 207.406 561.149 209.059 564.606 210.711C565.429 211.105 566.27 211.512 566.92 212.2C567.732 213.06 568.16 214.27 568.522 215.456C570 220.311 570.746 225.445 570.72 230.572C566.88 231.567 563.04 232.563 559.199 233.558C558.469 233.747 557.703 233.956 557.144 234.518C556.178 235.49 556.163 237.25 556.744 238.551C557.325 239.852 558.364 240.806 559.356 241.746C561.122 243.419 562.92 245.337 563.413 247.864C563.907 250.392 562.391 253.532 560.077 253.483C558.592 253.451 557.38 252.2 556.004 251.577C552.473 249.976 548.497 252.647 544.715 252.12C541.819 251.718 539.097 249.448 536.24 250.113C535.095 250.379 534.047 251.13 533.352 252.18C530.417 256.621 534.165 262.711 538.428 263.519C540.045 263.825 541.907 264.077 542.825 265.596C543.708 267.06 543.511 269.431 544.941 270.179C546.455 270.972 547.918 269.072 549.454 268.324C553.462 266.379 560.295 272.039 560.406 276.781C560.435 278.034 559.966 279.601 560.877 280.334C561.317 280.687 561.905 280.65 562.441 280.735C567.968 281.596 560.051 300.085 559.985 305.049C559.948 307.825 559.862 311.247 557.636 312.476C555.679 313.557 553.311 312.058 551.978 310.124C550.645 308.192 549.864 305.804 548.339 304.059C544.658 299.844 537.631 300.378 534.893 295.347C533.207 292.248 533.905 288.318 534.015 284.693C534.344 273.863 528.972 263.968 523.789 254.81C521.489 250.747 518.466 246.21 514.166 246.179C513.114 246.172 512.038 246.45 511.022 246.138C510.007 245.826 509.106 244.565 509.576 243.511C507.759 242.113 506.225 242.869 504.848 240.943C504.384 240.293 503.936 239.585 503.82 238.763C503.569 236.957 504.944 235.459 505.851 233.939C510.473 226.177 504.293 219.221 513.821 214.522C520.026 211.463 526.165 207.059 532.985 205.93C534.197 205.73 535.408 205.93 536.607 206.305Z" fill="#68993D"/>
</g>
<g id="Group_24">
<path id="Vector_51" d="M654.834 243.387C656.37 244.841 658.397 246.164 660.302 248.526C665.185 254.578 659.89 256.923 654.163 258.633C651.629 259.39 649.253 260.542 646.605 259.722C644.968 259.213 644.466 256.842 642.282 256.562C640.611 256.349 638.845 256.633 637.301 255.888C635.592 255.065 634.528 253.169 633.098 251.841C631.668 250.512 629.222 249.925 628.14 251.616C627.435 252.716 627.571 254.443 626.568 255.198C626.087 255.561 625.473 255.584 624.897 255.667C620.011 256.378 613.814 265.815 615.611 271.283C616.141 272.899 617.253 274.176 618.146 275.578C622.974 283.151 620.327 295.24 612.915 299.464C611.299 300.386 609.509 300.982 608.097 302.254C605.798 304.324 604.665 308.029 601.885 309.144C598.185 310.628 594.715 306.571 592.443 302.985C591.556 301.584 590.637 300.085 590.543 298.371C590.411 295.947 591.941 293.856 592.684 291.575C594.008 287.517 592.806 283.055 592.236 278.784C591.666 274.511 592.121 269.348 595.428 267.112C596.498 266.388 597.758 266.067 598.806 265.307C600.9 263.789 601.8 260.816 603.766 259.098C609.159 254.39 613.796 258.155 614.172 248.332C614.227 246.912 613.657 244.986 612.4 245.191C611.874 245.277 611.475 245.744 611.052 246.105C609.025 247.829 605.65 246.867 604.608 244.268C602.472 243.136 600.579 246.111 600.274 248.157C600.03 249.787 600.283 251.49 599.907 253.089C599.265 255.816 596.051 257.995 593.567 257.083C590.561 255.979 591.173 252.512 590.347 249.57C589.503 246.565 587.534 244.304 588.819 241.216C588.937 240.93 593.798 237.88 592.913 237.258C590.52 235.571 589.848 231.837 590.608 228.79C591.368 225.739 593.24 223.214 595.062 220.79C600.074 220.279 605.21 221.393 609.688 223.962C610.619 224.497 611.718 225.104 612.657 224.584C613.289 224.234 613.631 223.474 613.994 222.798C617.389 216.456 624.981 214.908 631.588 215.127C636.794 215.301 642.174 216.252 646.501 219.493C650.828 222.734 653.825 228.725 652.664 234.401C651.653 239.361 652.827 241.487 654.834 243.387Z" fill="#68993D"/>
</g>
</g>
<g id="Group_25">
<path id="Vector_52" opacity="0.1" d="M563.037 164.724C588.769 183.119 622.535 214.415 599.693 277.981C576.852 341.546 517.043 331.845 517.043 331.845C517.043 331.845 612.096 372.312 643.21 342.043C674.324 311.773 661.558 196.766 643.21 181.309C624.864 165.853 563.037 164.724 563.037 164.724Z" fill="black"/>
</g>
</g>
</g>
<g id="Group_26">
<path id="Vector_53" d="M410.969 398.707L422.987 384.322L508.253 342.584C509.624 341.913 511.164 341.812 512.596 342.299C518.122 344.179 518.632 352.701 513.381 355.387L429.444 398.32L410.969 398.707Z" fill="#E8872E"/>
<path id="Vector_54" d="M430.722 385.024L504.079 349.596L505.655 354.453L433.932 391.354L425.698 393.517L424.063 389.101L430.722 385.024Z" fill="#C46E27"/>
<path id="Vector_55" d="M509.539 347.409C508.67 346.073 507.493 344.727 506.156 343.61L494.13 349.496C495.986 350.704 497.581 352.631 498.621 354.674C499.763 356.918 500.31 359.511 500.273 362.09L512.335 355.92C512.1 352.871 511.149 349.886 509.539 347.409Z" fill="#9E9E9E"/>
<path id="Vector_56" d="M512.595 342.299C511.164 341.812 509.624 341.913 508.252 342.584L503.335 344.991C504.974 345.89 506.371 347.289 507.293 349.079C508.625 351.662 509.022 354.694 508.866 357.697L513.38 355.388C518.632 352.7 518.121 344.177 512.595 342.299Z" fill="#FFA6D3"/>
<path id="Vector_57" d="M426.768 391.399L430.722 385.024L422.987 384.322L410.969 398.707L429.443 398.32L433.933 391.354L426.768 391.399Z" fill="#FFD1AB"/>
<path id="Vector_58" d="M417.529 398.57C417.454 397.054 417.099 395.555 416.462 394.213C416.241 393.749 415.948 393.411 415.625 393.133L410.969 398.705L417.529 398.57Z" fill="#222221"/>
</g>
<path id="A" d="M288.862 185.986L285.235 188.109L281.686 151.987L285.257 149.897L309.789 173.737L306.161 175.86L285.805 155.62L285.581 155.75L288.862 185.986ZM284.717 173.49L299.338 164.933L300.846 168.153L286.225 176.711L284.717 173.49Z" fill="#FCBE3A"/>
<path id="B" d="M674.703 291.649L679.427 276.587L684.565 278.601C685.589 279.002 686.377 279.515 686.928 280.138C687.48 280.757 687.824 281.434 687.959 282.169C688.095 282.9 688.048 283.633 687.817 284.368C687.614 285.016 687.334 285.506 686.977 285.839C686.625 286.175 686.228 286.394 685.788 286.496C685.352 286.601 684.905 286.63 684.447 286.582L684.401 286.729C684.842 286.935 685.243 287.274 685.605 287.746C685.967 288.219 686.216 288.789 686.349 289.459C686.483 290.128 686.426 290.859 686.177 291.654C685.94 292.409 685.559 293.022 685.035 293.494C684.511 293.966 683.833 294.237 683 294.306C682.167 294.376 681.171 294.184 680.013 293.731L674.703 291.649ZM676.99 290.729L680.521 292.113C681.683 292.568 682.581 292.661 683.213 292.392C683.852 292.119 684.276 291.652 684.483 290.99C684.643 290.48 684.664 289.96 684.546 289.429C684.429 288.893 684.177 288.403 683.79 287.96C683.404 287.511 682.89 287.161 682.249 286.91L678.633 285.492L676.99 290.729ZM679.131 283.904L682.432 285.198C682.968 285.408 683.485 285.489 683.983 285.442C684.486 285.397 684.926 285.228 685.302 284.935C685.684 284.644 685.957 284.234 686.123 283.705C686.331 283.043 686.282 282.393 685.977 281.756C685.674 281.114 685.034 280.602 684.058 280.219L680.699 278.903L679.131 283.904Z" fill="#38ABF2"/>
<path id="4" d="M387.739 192.284L388.21 190.784L397.953 182.842L399.015 183.259L398.286 185.583L397.568 185.301L390.207 191.302L390.17 191.42L398.867 194.829L398.36 196.447L387.739 192.284ZM393.688 198.084L394.8 194.539L395.019 193.841L398.412 183.022L400.106 183.686L395.382 198.748L393.688 198.084Z" fill="#38ABF2"/>
<path id="+" d="M245.27 313.493L239.949 304.822L241.319 303.771L246.64 312.443L245.27 313.493ZM239.709 312.463L238.807 310.992L246.88 304.801L247.782 306.272L239.709 312.463Z" fill="#FCBE3A"/>
<path id="C" d="M540.022 140.186L538.122 140.397C537.961 139.861 537.722 139.402 537.404 139.019C537.092 138.635 536.724 138.324 536.3 138.087C535.882 137.844 535.426 137.678 534.933 137.588C534.44 137.498 533.933 137.481 533.412 137.539C532.463 137.645 531.623 137.981 530.895 138.548C530.172 139.114 529.625 139.89 529.253 140.878C528.887 141.864 528.765 143.038 528.886 144.399C529.007 145.761 529.334 146.885 529.866 147.772C530.404 148.658 531.077 149.299 531.886 149.695C532.7 150.09 533.582 150.235 534.532 150.13C535.053 150.072 535.547 149.945 536.014 149.748C536.481 149.551 536.899 149.291 537.267 148.965C537.64 148.635 537.946 148.247 538.185 147.801C538.429 147.35 538.582 146.848 538.647 146.293L540.546 146.082C540.475 146.901 540.278 147.649 539.957 148.326C539.635 149.002 539.213 149.594 538.691 150.102C538.169 150.605 537.568 151.01 536.889 151.318C536.215 151.625 535.482 151.823 534.69 151.911C533.352 152.059 532.133 151.864 531.033 151.325C529.933 150.785 529.031 149.945 528.326 148.803C527.621 147.662 527.195 146.262 527.047 144.604C526.9 142.945 527.071 141.479 527.561 140.205C528.051 138.931 528.788 137.908 529.772 137.137C530.755 136.367 531.916 135.907 533.254 135.758C534.046 135.67 534.799 135.703 535.514 135.856C536.234 136.009 536.895 136.276 537.496 136.659C538.097 137.037 538.615 137.522 539.049 138.115C539.483 138.703 539.807 139.393 540.022 140.186Z" fill="#FFE0AE"/>
<path id="7" d="M585.744 44.3247L604.853 18.2698L604.893 18.0144L588.148 14.6985L588.704 11.1859L609.509 15.3056L608.923 19.0098L589.867 45.1411L585.744 44.3247Z" fill="#845BFA"/>
</g>
</g>
</g>
</svg>
