<svg width="375" height="222" viewBox="0 0 375 222" fill="none" xmlns="http://www.w3.org/2000/svg">
<path d="M143.21 51.6825C143.21 51.6825 129.326 126.943 182.368 126.943C235.41 126.943 223.007 48.7515 223.007 48.7515L144.84 51.6833" fill="#814C4A"/>
<g opacity="0.2">
<path d="M148.317 62.2856C148.317 62.2856 148.309 63.1041 148.296 64.5362C148.272 65.965 148.336 68.0074 148.424 70.4489C148.521 72.8911 148.705 75.7341 149.017 78.7647C149.16 80.2808 149.389 81.841 149.605 83.4248C149.847 85.0046 150.112 86.6072 150.463 88.196C150.771 89.7896 151.166 91.3702 151.596 92.9141C151.803 93.6876 152.062 94.4416 152.276 95.1964C152.515 95.9487 152.783 96.679 153.027 97.4036C153.31 98.1185 153.587 98.8202 153.858 99.5073C154.159 100.184 154.438 100.854 154.739 101.493C155.059 102.127 155.371 102.743 155.671 103.34C156 103.924 156.318 104.491 156.623 105.032C157.3 106.086 157.906 107.064 158.531 107.886C159.106 108.739 159.743 109.398 160.207 109.984C161.223 111.09 161.825 111.724 161.825 111.724C161.825 111.724 161.652 111.586 161.328 111.329C161.013 111.065 160.506 110.708 159.939 110.189C159.403 109.648 158.67 109.041 157.982 108.235C157.633 107.839 157.223 107.434 156.859 106.969C156.497 106.5 156.116 106.007 155.719 105.492C155.356 104.961 154.979 104.402 154.589 103.826C154.22 103.24 153.875 102.619 153.5 101.985C153.149 101.343 152.818 100.672 152.462 99.992C152.131 99.3025 151.833 98.5852 151.511 97.8631C150.931 96.3967 150.345 94.8749 149.892 93.2943C149.431 91.717 149.005 90.107 148.673 88.4824C148.336 86.8561 148.085 85.2208 147.861 83.6101C147.649 81.9993 147.519 80.4056 147.421 78.8659C147.312 77.3253 147.29 75.8336 147.283 74.4203C147.272 73.0086 147.319 71.6745 147.381 70.4432C147.501 67.9813 147.764 65.9397 147.942 64.5141C148.141 63.0919 148.317 62.2856 148.317 62.2856Z" fill="#B76A6A"/>
<path d="M154.862 62.2856C154.862 62.2856 154.919 63.047 155.017 64.3779C155.071 65.0413 155.136 65.8483 155.211 66.7728C155.296 67.6949 155.39 68.7361 155.493 69.8711C155.616 71.0046 155.748 72.2326 155.887 73.5292C156.036 74.8267 156.203 76.1902 156.397 77.5994C156.56 79.0127 156.821 80.4595 157.041 81.9356C157.237 83.415 157.575 84.8985 157.836 86.3918C158.12 87.8818 158.465 89.3596 158.777 90.8202C159.185 92.2621 159.489 93.7007 159.89 95.0715C160.338 96.4269 160.683 97.7635 161.119 99.0022C161.572 100.237 162.002 101.404 162.398 102.482C162.864 103.538 163.291 104.508 163.669 105.367C163.763 105.584 163.855 105.792 163.941 105.993C164.047 106.189 164.149 106.375 164.245 106.555C164.439 106.917 164.616 107.249 164.776 107.549C165.408 108.764 165.769 109.458 165.769 109.458C165.769 109.458 165.292 108.821 164.458 107.703C164.253 107.42 164.024 107.108 163.776 106.767C163.653 106.597 163.525 106.418 163.39 106.234C163.278 106.04 163.16 105.839 163.039 105.631C162.555 104.802 162.006 103.861 161.427 102.827C160.905 101.772 160.382 100.612 159.829 99.3833C159.298 98.147 158.842 96.8145 158.342 95.442C157.889 94.0605 157.473 92.6178 157.058 91.1515C156.721 89.6721 156.346 88.1723 156.04 86.6635C155.796 85.1466 155.474 83.6378 155.298 82.1396C155.081 80.6447 154.92 79.1678 154.802 77.7365C154.65 76.3093 154.593 74.923 154.532 73.61C154.449 72.2987 154.47 71.0551 154.449 69.9103C154.453 65.3252 154.862 62.2856 154.862 62.2856Z" fill="#B76A6A"/>
<path d="M164.86 64.3506C164.86 64.3506 165.045 67.1821 165.321 71.4285C165.46 73.5452 165.623 76.0152 165.796 78.6607C165.896 79.981 166 81.3445 166.105 82.7317C166.214 84.1173 166.333 85.5224 166.483 86.9276C166.609 88.3319 166.755 89.7346 166.927 91.112C167.106 92.4869 167.263 93.8448 167.467 95.1504C167.673 96.456 167.88 97.715 168.104 98.908C168.345 100.094 168.588 101.214 168.838 102.246C169.112 103.27 169.376 104.205 169.645 105.03C169.938 105.844 170.178 106.565 170.445 107.132C170.685 107.714 170.91 108.157 171.071 108.458C171.226 108.762 171.311 108.924 171.311 108.924C171.311 108.924 171.196 108.777 170.984 108.501C170.771 108.224 170.442 107.823 170.116 107.266C169.754 106.724 169.389 106.036 168.988 105.234C168.802 104.829 168.605 104.398 168.398 103.944C168.217 103.481 168.027 102.994 167.828 102.485C167.651 101.97 167.467 101.436 167.277 100.881C167.113 100.321 166.945 99.7412 166.771 99.1463C166.453 97.9492 166.135 96.6844 165.881 95.365C165.629 94.0463 165.36 92.682 165.18 91.2883C164.985 89.8953 164.813 88.4788 164.669 87.0606C164.539 85.6424 164.439 84.2209 164.352 82.8231C164.261 81.4253 164.234 80.0471 164.197 78.7154C164.143 76.0512 164.184 73.564 164.28 71.4351C164.453 67.1772 164.86 64.3506 164.86 64.3506Z" fill="#B76A6A"/>
<path d="M216.416 62.2856C216.416 62.2856 216.424 63.1041 216.437 64.5362C216.46 65.965 216.396 68.0074 216.309 70.4489C216.21 72.8911 216.027 75.7341 215.715 78.7647C215.572 80.2808 215.345 81.841 215.128 83.4248C214.885 85.0046 214.62 86.6072 214.268 88.196C213.96 89.7896 213.566 91.3702 213.135 92.9141C212.928 93.6876 212.669 94.4416 212.455 95.1964C212.216 95.9487 211.949 96.679 211.703 97.4036C211.421 98.1185 211.145 98.8202 210.873 99.5073C210.573 100.184 210.293 100.854 209.993 101.493C209.672 102.127 209.36 102.743 209.059 103.34C208.731 103.924 208.414 104.491 208.11 105.032C207.433 106.086 206.827 107.064 206.201 107.886C205.627 108.739 204.988 109.398 204.525 109.984C203.509 111.09 202.907 111.724 202.907 111.724C202.907 111.724 203.082 111.586 203.405 111.329C203.72 111.065 204.227 110.708 204.793 110.189C205.329 109.648 206.062 109.041 206.749 108.235C207.098 107.839 207.508 107.434 207.872 106.969C208.236 106.5 208.616 106.007 209.013 105.492C209.375 104.961 209.753 104.402 210.145 103.826C210.513 103.24 210.858 102.619 211.231 101.985C211.583 101.343 211.913 100.672 212.269 99.992C212.599 99.3025 212.898 98.5852 213.221 97.8631C213.8 96.3967 214.388 94.8749 214.839 93.2943C215.3 91.717 215.726 90.107 216.059 88.4824C216.396 86.8561 216.647 85.2208 216.87 83.6101C217.084 81.9993 217.213 80.4056 217.312 78.8659C217.421 77.3253 217.442 75.8336 217.448 74.4203C217.46 73.0086 217.413 71.6745 217.349 70.4432C217.231 67.9813 216.966 65.9397 216.789 64.5141C216.591 63.0919 216.416 62.2856 216.416 62.2856Z" fill="#B76A6A"/>
<path d="M209.871 62.2856C209.871 62.2856 209.813 63.047 209.716 64.3779C209.662 65.0413 209.597 65.8483 209.522 66.7728C209.438 67.6949 209.343 68.7361 209.239 69.8711C209.118 71.0046 208.985 72.2326 208.845 73.5292C208.697 74.8267 208.529 76.1902 208.336 77.5994C208.171 79.0127 207.912 80.4595 207.691 81.9356C207.496 83.415 207.159 84.8985 206.896 86.3918C206.611 87.8818 206.268 89.3596 205.954 90.8202C205.548 92.2621 205.242 93.7007 204.842 95.0715C204.394 96.4269 204.048 97.7635 203.613 99.0022C203.16 100.237 202.729 101.404 202.334 102.482C201.869 103.538 201.441 104.508 201.064 105.367C200.968 105.584 200.879 105.792 200.79 105.993C200.685 106.189 200.583 106.375 200.487 106.555C200.293 106.917 200.116 107.249 199.956 107.549C199.324 108.764 198.964 109.458 198.964 109.458C198.964 109.458 199.441 108.821 200.273 107.703C200.479 107.42 200.709 107.108 200.955 106.767C201.08 106.597 201.208 106.418 201.341 106.234C201.453 106.04 201.57 105.839 201.691 105.631C202.177 104.802 202.725 103.861 203.303 102.827C203.826 101.772 204.348 100.612 204.902 99.3833C205.433 98.147 205.89 96.8145 206.39 95.442C206.842 94.0605 207.259 92.6178 207.673 91.1515C208.011 89.6721 208.385 88.1723 208.691 86.6635C208.937 85.1466 209.257 83.6378 209.435 82.1396C209.65 80.6447 209.812 79.1678 209.929 77.7365C210.082 76.3093 210.138 74.923 210.199 73.61C210.281 72.2987 210.261 71.0551 210.281 69.9103C210.279 65.3252 209.871 62.2856 209.871 62.2856Z" fill="#B76A6A"/>
<path d="M199.873 64.3506C199.873 64.3506 199.688 67.1821 199.412 71.4285C199.273 73.5452 199.11 76.0152 198.937 78.6607C198.837 79.981 198.732 81.3445 198.628 82.7317C198.519 84.1173 198.399 85.5224 198.249 86.9276C198.125 88.3319 197.978 89.7346 197.805 91.112C197.628 92.4869 197.47 93.8448 197.267 95.1504C197.059 96.456 196.853 97.715 196.63 98.908C196.388 100.094 196.146 101.214 195.895 102.246C195.622 103.27 195.358 104.205 195.088 105.03C194.795 105.844 194.555 106.565 194.289 107.132C194.048 107.714 193.823 108.157 193.663 108.458C193.506 108.762 193.422 108.924 193.422 108.924C193.422 108.924 193.537 108.777 193.749 108.501C193.96 108.224 194.29 107.823 194.617 107.266C194.979 106.724 195.343 106.036 195.745 105.234C195.931 104.829 196.127 104.398 196.336 103.944C196.516 103.481 196.707 102.994 196.906 102.485C197.081 101.97 197.266 101.436 197.458 100.881C197.62 100.321 197.789 99.7412 197.963 99.1463C198.281 97.9492 198.599 96.6844 198.854 95.365C199.106 94.0463 199.373 92.682 199.554 91.2883C199.75 89.8953 199.922 88.4788 200.065 87.0606C200.196 85.6424 200.294 84.2209 200.384 82.8231C200.475 81.4253 200.502 80.0471 200.536 78.7154C200.592 76.0512 200.551 73.564 200.454 71.4351C200.279 67.1772 199.873 64.3506 199.873 64.3506Z" fill="#B76A6A"/>
</g>
<path d="M191.552 78.1992H182.368H173.176L165.326 106.195L182.368 126.943L199.407 104.48L191.552 78.1992Z" fill="#FFAE8A"/>
<path d="M191.553 78.1992H182.368H173.176L171.263 85.0218C176.696 89.8206 187.986 92.9973 194.947 89.5579L191.553 78.1992Z" fill="#F79B77"/>
<path d="M149.772 50.624C149.772 50.624 144.241 42.81 140.921 46.5244C137.598 50.2388 142.948 59.1944 149.772 57.6685V50.624Z" fill="#FFAE8A"/>
<path d="M214.965 50.624C214.965 50.624 220.492 42.81 223.808 46.5244C227.13 50.2388 221.78 59.1944 214.965 57.6685V50.624Z" fill="#FFAE8A"/>
<path d="M182.481 8.1582C144.861 8.1582 147.814 50.3566 148.55 60.6414C149.287 70.9303 156.477 74.4652 165.883 80.945C175.287 87.4192 182.481 86.737 182.481 86.737C182.481 86.737 189.674 87.4192 199.079 80.945C208.48 74.466 215.672 70.9303 216.405 60.6414C217.148 50.3566 220.104 8.1582 182.481 8.1582Z" fill="#FFAE8A"/>
<path opacity="0.5" d="M216.571 45.5444C216.804 51.0859 216.472 55.7819 216.282 58.4037C215.549 68.6926 208.359 72.2275 198.955 78.7057C189.55 85.1806 182.357 84.4993 182.357 84.4993C182.357 84.4993 175.162 85.1806 165.759 78.7057C156.354 72.2275 149.165 68.6926 148.427 58.4037C148.39 57.879 148.345 57.2678 148.302 56.5865C148.378 58.2152 148.475 59.5959 148.55 60.642C149.287 70.9309 156.478 74.4658 165.884 80.9456C175.288 87.4197 182.481 86.7375 182.481 86.7375C182.481 86.7375 189.675 87.4197 199.08 80.9456C208.481 74.4666 215.673 70.9309 216.406 60.642C216.62 57.6742 217.016 52.0463 216.571 45.5444Z" fill="#FFBCA1"/>
<path d="M230.014 100.13L196.043 93.23C196.043 102.571 184.07 102.544 183.104 102.373V102.361C183.104 102.361 183.091 102.363 183.07 102.366C183.049 102.363 183.035 102.361 183.035 102.361V102.373C182.069 102.544 168.962 102.571 168.962 93.23L136.126 100.13L143.13 128.585C143.13 128.585 134.11 145.93 149.826 158.195L152.711 200.493H183.035H183.104H214.421L216.311 158.195C232.025 145.93 223.008 128.585 223.008 128.585L230.014 100.13Z" fill="#EB7547"/>
<path d="M183.025 105.254V105.238C183.025 105.238 183.042 105.241 183.07 105.246C183.097 105.241 183.113 105.238 183.113 105.238V105.254C184.325 105.468 199.26 105.499 199.442 93.9193L196.043 93.229C196.043 102.57 184.07 102.543 183.104 102.372V102.36C183.104 102.36 183.091 102.362 183.07 102.365C183.049 102.362 183.035 102.36 183.035 102.36V102.372C182.069 102.543 168.962 102.57 168.962 93.229L165.27 94.0042C165.55 105.498 181.815 105.468 183.025 105.254Z" fill="#EB7547"/>
<path d="M191.97 46.2961C191.97 46.2961 191.737 43.9101 192.669 43.4344C193.601 42.9554 201.874 42.7171 204.904 43.4344C207.932 44.1492 209.212 47.4573 209.212 47.4573C209.212 47.4573 208.118 46.0815 203.453 45.6555C200.03 45.3447 193.133 46.7735 191.97 46.2961Z" fill="#AA6868"/>
<path d="M172.992 46.2961C172.992 46.2961 173.225 43.9101 172.293 43.4344C171.363 42.9554 163.09 42.7171 160.062 43.4344C157.031 44.1492 155.747 47.4573 155.747 47.4573C155.747 47.4573 156.843 46.0815 161.507 45.6555C164.934 45.3447 171.828 46.7735 172.992 46.2961Z" fill="#AA6868"/>
<path d="M202.838 54.3966C202.838 56.1542 201.74 57.5806 200.381 57.5806C199.025 57.5806 197.924 56.1542 197.924 54.3966C197.924 52.6397 199.025 51.2158 200.381 51.2158C201.74 51.2158 202.838 52.6397 202.838 54.3966Z" fill="#111B24"/>
<path d="M167.56 54.3966C167.56 56.1542 166.46 57.5806 165.104 57.5806C163.748 57.5806 162.648 56.1542 162.648 54.3966C162.648 52.6397 163.748 51.2158 165.104 51.2158C166.46 51.2158 167.56 52.6397 167.56 54.3966Z" fill="#111B24"/>
<path d="M171.616 70.7734C171.616 70.7734 174.82 77.4426 182.479 77.4426C190.133 77.4426 193.323 70.7734 193.323 70.7734C193.323 70.7734 184.378 74.2871 171.616 70.7734Z" fill="#F4472A"/>
<path d="M171.64 70.8193C171.64 70.8193 176.914 74.6398 182.622 74.6398C188.329 74.6398 193.2 70.8193 193.2 70.8193C193.2 70.8193 184.249 75.2437 171.64 70.8193Z" fill="white"/>
<path d="M193.626 70.5932C193.626 70.5932 186.077 70.1868 184.621 70.5932C183.18 70.9955 183.1 71.0306 182.624 71.0306C182.119 71.0306 182.063 70.9963 180.625 70.5932C179.165 70.1868 171.617 70.5932 171.617 70.5932C180.499 74.4855 191.989 72.0555 193.626 70.5932Z" fill="#F4472A"/>
<path d="M169.842 70.0835C177.378 73.4993 187.662 73.731 195.121 70.0835C195.29 70.0011 195.125 69.811 194.952 69.895C187.587 73.4984 177.455 73.2691 170.008 69.895C169.831 69.8142 169.666 70.0052 169.842 70.0835Z" fill="#F4472A"/>
<path d="M178.552 64.3509C178.552 64.3509 179.099 64.5149 179.922 64.7605C180.316 64.8609 180.745 64.9866 181.191 65.0714C181.412 65.118 181.639 65.1473 181.862 65.1832C182.088 65.1947 182.309 65.2428 182.531 65.2265C182.753 65.2501 182.97 65.2232 183.188 65.211C183.409 65.2167 183.615 65.1432 183.835 65.1277C184.049 65.0976 184.252 65.0217 184.463 64.9825C184.677 64.9482 184.861 64.8544 185.054 64.8054C185.238 64.7401 185.431 64.7002 185.581 64.63C185.732 64.5647 185.88 64.5174 186.001 64.4749C186.247 64.3925 186.406 64.3501 186.406 64.3501C186.406 64.3501 186.364 64.4798 186.258 64.6993C186.144 64.9107 186.001 65.2444 185.678 65.5431C185.518 65.694 185.373 65.8931 185.14 66.0286C184.915 66.1681 184.686 66.3419 184.401 66.4554C184.112 66.5533 183.821 66.7042 183.485 66.7402C183.156 66.8046 182.816 66.8422 182.475 66.825C182.131 66.8266 181.803 66.7614 181.482 66.6953C181.171 66.6153 180.87 66.5125 180.605 66.3876C180.065 66.1412 179.646 65.8205 179.337 65.5162C178.711 64.9082 178.552 64.3509 178.552 64.3509Z" fill="#F89675"/>
<g opacity="0.1">
<path d="M166.083 63.1285C166.083 66.0481 163.02 68.4153 159.24 68.4153C155.46 68.4153 152.396 66.0481 152.396 63.1285C152.396 60.208 155.46 57.8408 159.24 57.8408C163.02 57.8408 166.083 60.2088 166.083 63.1285Z" fill="#F4472A"/>
<path d="M213.44 63.1285C213.44 66.0481 210.376 68.4153 206.597 68.4153C202.818 68.4153 199.754 66.0481 199.754 63.1285C199.754 60.208 202.818 57.8408 206.597 57.8408C210.376 57.8408 213.44 60.2088 213.44 63.1285Z" fill="#F4472A"/>
</g>
<path d="M229.852 100.13C229.852 100.13 241.991 103.787 247.812 115.94C253.633 128.092 267.867 164.715 265.55 172.855C263.061 181.598 214.896 198.435 214.896 198.435L207.611 187.39C207.611 187.39 237.409 169.077 242.374 165.589L223.008 128.585L229.852 100.13Z" fill="#EB7547"/>
<path d="M136.243 100.13C136.243 100.13 124.103 103.787 118.283 115.94C112.461 128.092 98.2256 164.715 100.543 172.855C103.032 181.598 151.198 198.435 151.198 198.435L158.483 187.39C158.483 187.39 128.686 169.077 123.719 165.589L143.129 128.585L136.243 100.13Z" fill="#EB7547"/>
<path d="M199.231 157.632C192.656 155.844 186.437 154.332 183.05 154.332C179.659 154.332 173.442 155.843 166.866 157.632C160.288 159.42 155.59 158.459 155.59 158.459C160.26 160.999 166.72 161.354 173.129 159.284C178.785 157.456 183.05 157.498 183.05 157.498C183.05 157.498 187.256 157.594 192.968 159.284C199.496 161.216 205.836 161 210.505 158.459C210.504 158.459 205.808 159.42 199.231 157.632Z" fill="#F4B425"/>
<path d="M223.747 48.074C222.343 46.9985 221.187 47.0973 220.25 47.79C220.14 47.8382 220.052 47.9092 219.997 47.9965C218.359 49.4563 217.463 52.7309 217.179 54.265C217.062 54.8957 218.16 55.1666 218.277 54.531C218.472 53.4759 219.172 50.3751 220.449 48.9928C221.198 50.1891 221.273 51.6179 220.424 52.8394C220.041 53.391 221.025 53.8921 221.408 53.3429C222.481 51.799 222.393 49.888 221.357 48.3808C221.828 48.238 222.354 48.331 222.941 48.7807C223.492 49.2017 224.301 48.4983 223.747 48.074Z" fill="#F4885D"/>
<path d="M141.646 48.074C143.049 46.9985 144.207 47.0973 145.142 47.79C145.253 47.8382 145.34 47.9092 145.396 47.9965C147.033 49.4563 147.93 52.7309 148.213 54.265C148.331 54.8957 147.233 55.1666 147.116 54.531C146.922 53.4759 146.221 50.3751 144.945 48.9928C144.196 50.1891 144.12 51.6179 144.97 52.8394C145.354 53.391 144.368 53.8921 143.986 53.3429C142.913 51.799 143.002 49.888 144.037 48.3808C143.565 48.238 143.039 48.331 142.452 48.7807C141.901 49.2017 141.092 48.4983 141.646 48.074Z" fill="#F4885D"/>
<path d="M209.299 189.948C209.299 189.948 198.832 189.81 197.162 191.143C195.493 192.476 190.484 200.605 191.244 201.404C192.002 202.204 203.842 200.337 206.876 199.272C209.912 198.207 213.93 196.971 213.93 196.971L209.299 189.948Z" fill="#FFAE8A"/>
<path d="M156.375 189.948C156.375 189.948 166.841 189.81 168.511 191.143C170.181 192.476 175.189 200.605 174.43 201.404C173.671 202.204 161.832 200.337 158.797 199.272C155.762 198.207 151.744 196.971 151.744 196.971L156.375 189.948Z" fill="#FFAE8A"/>
<path d="M148.229 48.7505C148.229 48.7505 166.308 40.5652 171.263 24.9732C171.263 24.9732 186.059 46.943 216.73 48.7505C216.73 48.7505 219.676 45.1609 222.989 45.861C222.989 45.861 225.093 3.65283 182.367 3.65283C139.639 3.65283 143.288 45.5371 143.288 45.5371C143.288 45.5371 145.635 46.1287 148.229 48.7505Z" fill="#814C4A"/>
<g opacity="0.2">
<path d="M176.825 18.1787C176.825 18.1787 177.248 18.6504 178.028 19.4386C178.808 20.2269 179.929 21.3399 181.339 22.6153C182.031 23.2632 182.827 23.9266 183.645 24.6422C184.47 25.3538 185.39 26.0572 186.306 26.8119C187.27 27.5227 188.225 28.2962 189.272 29.0037C189.786 29.3668 190.304 29.7316 190.825 30.098C191.35 30.4578 191.907 30.7867 192.447 31.1326C192.99 31.4754 193.513 31.845 194.069 32.1682C194.627 32.488 195.182 32.8063 195.734 33.1237C196.823 33.7765 197.952 34.3363 199.035 34.8952C200.105 35.477 201.201 35.9356 202.223 36.4064C202.738 36.6382 203.237 36.865 203.721 37.0837C204.217 37.2771 204.697 37.464 205.158 37.6427C206.088 37.9887 206.921 38.3599 207.686 38.6268C208.459 38.8822 209.132 39.1057 209.685 39.2902C210.795 39.6786 211.43 39.9005 211.43 39.9005C211.43 39.9005 210.76 39.8002 209.587 39.5953C209 39.4876 208.286 39.3587 207.469 39.2077C206.657 39.0372 205.765 38.7696 204.781 38.4995C204.289 38.3624 203.777 38.2179 203.247 38.0694C202.728 37.8973 202.205 37.6908 201.658 37.4917C200.572 37.0837 199.396 36.6969 198.273 36.1339C197.137 35.597 195.921 35.1 194.797 34.4293C194.224 34.111 193.645 33.7895 193.064 33.4688C192.487 33.1433 191.939 32.7736 191.376 32.4252C190.826 32.0604 190.26 31.7153 189.726 31.3366C189.198 30.9523 188.671 30.5704 188.15 30.1902C187.62 29.8205 187.116 29.4297 186.641 29.0209C186.157 28.6202 185.682 28.2244 185.213 27.836C184.302 27.0347 183.443 26.2432 182.667 25.4631C181.888 24.6846 181.169 23.9356 180.551 23.211C179.906 22.5092 179.378 21.8197 178.901 21.2216C178.432 20.6153 178.045 20.0751 177.737 19.623C177.119 18.7214 176.825 18.1787 176.825 18.1787Z" fill="#B76A6A"/>
<path d="M181.227 12.5815C181.227 12.5815 183.013 13.9916 185.741 15.9989C186.427 16.4967 187.169 17.0361 187.955 17.6064C188.747 18.1654 189.584 18.7545 190.451 19.3641C192.213 20.544 194.068 21.8292 196.012 23.0043L197.445 23.9141C197.933 24.1997 198.42 24.4853 198.901 24.7676C199.863 25.3396 200.815 25.8945 201.755 26.4061C202.685 26.9349 203.598 27.4229 204.474 27.8749C205.347 28.3335 206.167 28.7742 206.952 29.1397C207.727 29.5232 208.44 29.8758 209.07 30.1883C209.714 30.4796 210.276 30.735 210.739 30.9447C211.662 31.3747 212.188 31.6367 212.188 31.6367C212.188 31.6367 211.611 31.502 210.603 31.2393C210.1 31.103 209.491 30.9374 208.789 30.7464C208.102 30.5277 207.333 30.2634 206.495 29.9663C206.078 29.8146 205.634 29.6709 205.191 29.4971C204.752 29.3127 204.298 29.1218 203.832 28.9259C202.897 28.5359 201.911 28.1222 200.938 27.6171C199.954 27.1307 198.924 26.6436 197.941 26.0602C197.443 25.7795 196.94 25.4955 196.435 25.2107L194.954 24.3058C193.968 23.697 193.025 23.0418 192.088 22.4045C191.141 21.7778 190.289 21.0761 189.423 20.442C187.746 19.1169 186.234 17.8333 185.023 16.6607C183.791 15.5085 182.844 14.4812 182.199 13.7533C181.556 13.023 181.227 12.5815 181.227 12.5815Z" fill="#B76A6A"/>
<path d="M183.959 8.31738C183.959 8.31738 186.341 8.36715 189.811 9.10236C190.674 9.29983 191.618 9.48589 192.586 9.78046C193.073 9.91837 193.574 10.0595 194.085 10.2056C194.586 10.3753 195.1 10.5491 195.62 10.7254C196.671 11.0657 197.711 11.5185 198.777 11.9559C199.818 12.4414 200.872 12.9441 201.899 13.4867L203.39 14.3721L204.131 14.8135L204.829 15.3007C205.756 15.9469 206.666 16.5859 207.443 17.3105C207.84 17.663 208.241 17.9992 208.614 18.3443C209.005 18.674 209.297 19.0747 209.63 19.4206C210.26 20.1395 210.907 20.7801 211.327 21.4867C211.795 22.1632 212.202 22.7899 212.56 23.3423C212.861 23.9241 213.083 24.448 213.278 24.8707C213.659 25.7193 213.859 26.2032 213.859 26.2032C213.859 26.2032 213.518 25.7707 212.957 25.0151C212.681 24.6381 212.345 24.182 211.963 23.6581C211.513 23.1726 211.009 22.6267 210.482 22.0269C209.987 21.4027 209.27 20.8543 208.611 20.2113C207.964 19.5569 207.153 18.9751 206.354 18.3452C205.587 17.6826 204.65 17.1473 203.768 16.5304L203.095 16.0759L202.376 15.6662L200.936 14.8429C199.962 14.3068 198.959 13.8082 197.968 13.326C196.943 12.8992 195.986 12.381 194.986 12.0138C194.492 11.8147 194.008 11.6173 193.534 11.4239C193.05 11.2452 192.582 11.0681 192.123 10.8967C191.207 10.5475 190.319 10.2644 189.508 9.97631C187.868 9.44428 186.486 9.01506 185.505 8.74414C184.528 8.45936 183.959 8.31738 183.959 8.31738Z" fill="#B76A6A"/>
<path d="M169.085 18.1787C169.085 18.1787 168.986 18.6512 168.726 19.4598C168.464 20.266 168.057 21.415 167.433 22.7467C166.836 24.0906 166.004 25.6075 165.026 27.1947C164.496 27.9666 164.019 28.8054 163.402 29.5847C162.812 30.3795 162.209 31.1857 161.549 31.9576C161.218 32.342 160.894 32.732 160.555 33.1074C160.205 33.4762 159.856 33.8442 159.51 34.2098C158.843 34.9597 158.077 35.6125 157.369 36.2685C156.678 36.9393 155.92 37.5097 155.216 38.0613C154.864 38.3355 154.522 38.6031 154.19 38.8618C153.837 39.0968 153.496 39.3253 153.168 39.5456C152.513 39.9821 151.915 40.3803 151.363 40.7075C150.794 41.0144 150.299 41.282 149.892 41.504C149.071 41.9332 148.597 42.1657 148.597 42.1657C148.597 42.1657 148.985 41.823 149.675 41.2485C150.021 40.967 150.443 40.6251 150.925 40.2326C151.387 39.8238 151.909 39.3612 152.477 38.8569C152.761 38.6072 153.057 38.3477 153.363 38.0784C153.655 37.7969 153.957 37.5072 154.268 37.2085C154.891 36.6145 155.553 35.9952 156.19 35.3171C156.846 34.6529 157.509 33.9584 158.155 33.2306C158.483 32.8707 158.813 32.5076 159.144 32.1437L160.087 31.0103C160.744 30.2718 161.348 29.4998 161.939 28.7361C162.546 27.9829 163.094 27.211 163.654 26.4798C164.17 25.7259 164.712 25.0168 165.181 24.3191C165.644 23.6206 166.105 22.9678 166.499 22.3501C168.104 19.8931 169.085 18.1787 169.085 18.1787Z" fill="#B76A6A"/>
<path d="M173.018 9.7832C173.018 9.7832 172.884 9.81258 172.639 9.88602C172.391 9.94886 172.04 10.0802 171.591 10.2206C171.149 10.3887 170.608 10.5649 170.014 10.8252C169.409 11.0611 168.758 11.3817 168.047 11.7187C167.685 11.8754 167.342 12.0974 166.971 12.294C166.605 12.5013 166.21 12.6865 165.843 12.9354C165.47 13.1704 165.084 13.4119 164.692 13.6592C164.316 13.9252 163.932 14.1977 163.544 14.4735C162.736 14.9958 162.048 15.6853 161.264 16.2957C160.533 16.9558 159.82 17.6559 159.131 18.3683C158.495 19.1215 157.778 19.8232 157.21 20.6049C156.668 21.3973 156.014 22.117 155.532 22.8963C155.057 23.6764 154.567 24.4214 154.104 25.1313C153.705 25.8706 153.328 26.5715 152.979 27.217C152.801 27.5393 152.63 27.8502 152.467 28.1447C152.314 28.4442 152.192 28.7363 152.065 29.0064C151.81 29.5491 151.586 30.0232 151.403 30.4116C151.025 31.1925 150.79 31.6372 150.79 31.6372C150.79 31.6372 150.875 31.1598 151.056 30.3234C151.152 29.9048 151.269 29.3981 151.403 28.8147C151.478 28.525 151.542 28.2108 151.637 27.8869C151.753 27.5703 151.876 27.2357 152.003 26.8873C152.263 26.1904 152.534 25.4283 152.869 24.6368C153.261 23.8681 153.672 23.0505 154.128 22.2182C154.333 21.7914 154.634 21.3981 154.901 20.9844C155.175 20.5715 155.457 20.1578 155.751 19.7449C156.331 18.9142 157.068 18.1545 157.729 17.3516C158.476 16.6066 159.247 15.8763 160.04 15.19C160.877 14.5437 161.68 13.886 162.563 13.3646C162.998 13.0986 163.406 12.8122 163.842 12.5796C164.284 12.356 164.715 12.1357 165.136 11.9227C165.974 11.4984 166.823 11.1794 167.597 10.8946C168.384 10.6237 169.111 10.4009 169.776 10.2549C170.426 10.0753 171.021 10.0035 171.497 9.91621C172.463 9.78238 173.018 9.7832 173.018 9.7832Z" fill="#B76A6A"/>
</g>
<path d="M146.108 40.0401L140.645 40.0189C140.647 39.6248 141.33 0.588379 183.109 0.588379C224.769 0.588379 225.251 39.6362 225.251 40.0304H219.787C219.783 38.6187 219.277 5.38644 183.109 5.38644C167.857 5.38644 157.016 11.1555 150.884 22.5354C146.207 31.2127 146.109 39.9536 146.108 40.0401Z" fill="#5D93F4"/>
<path opacity="0.5" d="M146.108 40.04C146.109 39.9535 146.207 31.2126 150.884 22.5345C157.016 11.1546 167.858 5.38551 183.109 5.38551C219.277 5.38551 219.783 38.6186 219.787 40.0294H222.655C222.394 35.0347 219.296 3.65234 183.1 3.65234C146.774 3.65234 143.527 35.069 143.244 40.0294L146.108 40.04Z" fill="#1A65D3"/>
<path d="M219.097 58.8747C214.106 62.6225 209.114 66.3712 204.124 70.1199C202.914 71.0289 204.446 72.7401 205.663 71.8262C210.652 68.0783 215.643 64.3288 220.635 60.5801C221.845 59.6719 220.315 57.9591 219.097 58.8747Z" fill="#5D93F4"/>
<path d="M209.84 67.5912C210.759 68.6071 210.567 70.0849 209.41 70.8927L205.24 73.8042C204.082 74.6112 202.399 74.4415 201.48 73.4272C200.56 72.4113 200.752 70.9335 201.909 70.1257L206.08 67.2142C207.236 66.4072 208.92 66.5761 209.84 67.5912Z" fill="#1A65D3"/>
<path opacity="0.5" d="M209.841 67.5906C209.212 66.8978 208.23 66.6106 207.3 66.7468C207.446 66.8529 207.584 66.9696 207.705 67.1034C208.625 68.1193 208.433 69.5971 207.275 70.4049L203.104 73.3164C202.738 73.5726 202.317 73.7187 201.886 73.784C202.838 74.467 204.236 74.5045 205.24 73.8044L209.41 70.8929C210.567 70.0842 210.76 68.6065 209.841 67.5906Z" fill="#0952AA"/>
<path d="M145.433 37.502H143.376V38.4314C141.276 40.3816 139.785 45.2139 139.785 50.8835C139.785 56.5514 141.276 61.3853 143.376 63.3356V64.2634H145.433C148.552 64.2634 151.081 58.2723 151.081 50.8835C151.08 43.493 148.552 37.502 145.433 37.502Z" fill="#1A65D3"/>
<path d="M143.376 37.502C142.87 37.502 142.381 37.6749 141.914 37.972C139.786 38.9577 136.09 41.9532 136.09 50.8835C136.09 58.917 139.081 62.0447 141.23 63.2581C141.892 63.9027 142.616 64.2626 143.376 64.2626C146.496 64.2626 149.024 58.2715 149.024 50.8827C149.024 43.493 146.496 37.502 143.376 37.502Z" fill="#5D93F4"/>
<path opacity="0.2" d="M144.999 38.0698C146.432 40.4974 147.367 44.4599 147.367 48.9479C147.367 56.3375 144.838 62.3286 141.719 62.3286C140.958 62.3286 140.235 61.9671 139.573 61.3233C139.181 61.1021 138.761 60.8157 138.335 60.4485C139.258 61.879 140.319 62.7439 141.231 63.258C141.892 63.9026 142.616 64.2625 143.377 64.2625C146.497 64.2625 149.025 58.2714 149.025 50.8826C149.025 44.8295 147.328 39.7214 144.999 38.0698Z" fill="#814C4A"/>
<path opacity="0.2" d="M141.402 41.0972C141.402 41.0972 141.339 41.3403 141.228 41.7646C141.127 42.1865 140.988 42.7691 140.844 43.457C140.781 43.8055 140.694 44.1661 140.63 44.5594C140.553 44.9462 140.482 45.3526 140.417 45.7745C140.334 46.1898 140.296 46.6329 140.218 47.0678C140.161 47.5093 140.105 47.9573 140.049 48.4069C140.002 48.8597 139.956 49.311 139.909 49.7565C139.886 50.2053 139.827 50.6468 139.794 51.0792C139.771 51.5109 139.736 51.932 139.695 52.3359C139.667 52.7431 139.639 53.1282 139.615 53.4832C139.529 54.2061 139.511 54.8157 139.448 55.2547C139.398 55.6937 139.346 55.954 139.346 55.954C139.346 55.954 139.222 55.7378 139.045 55.3412C138.875 54.943 138.611 54.3702 138.43 53.6407C138.335 53.2775 138.229 52.8801 138.15 52.4526C138.083 52.0242 138.021 51.568 137.971 51.0923C137.93 50.6174 137.923 50.1188 137.919 49.6145C137.918 49.1103 137.978 48.5986 138.012 48.0854C138.088 47.5778 138.161 47.0678 138.271 46.5766C138.395 46.0878 138.506 45.6055 138.677 45.16C138.827 44.7071 139.006 44.2869 139.196 43.8985C139.374 43.5084 139.59 43.1633 139.779 42.8483C140.186 42.2298 140.59 41.7777 140.893 41.4946C141.2 41.2139 141.402 41.0972 141.402 41.0972Z" fill="white"/>
<path d="M219.643 37.502H221.701V38.4314C223.802 40.3816 225.292 45.2139 225.292 50.8835C225.292 56.5514 223.801 61.3853 221.701 63.3356V64.2634H219.643C216.524 64.2634 213.996 58.2723 213.996 50.8835C213.995 43.493 216.523 37.502 219.643 37.502Z" fill="#1A65D3"/>
<path d="M221.7 37.502C222.206 37.502 222.694 37.6749 223.162 37.972C225.288 38.9577 228.985 41.9532 228.985 50.8835C228.985 58.917 225.995 62.0447 223.846 63.2581C223.184 63.9027 222.46 64.2626 221.7 64.2626C218.581 64.2626 216.052 58.2715 216.052 50.8827C216.052 43.493 218.581 37.502 221.7 37.502Z" fill="#5D93F4"/>
<path opacity="0.2" d="M220.076 38.0698C218.644 40.4974 217.709 44.4599 217.709 48.9479C217.709 56.3375 220.238 62.3286 223.356 62.3286C224.115 62.3286 224.84 61.9671 225.502 61.3233C225.894 61.1021 226.314 60.8157 226.739 60.4485C225.818 61.879 224.756 62.7439 223.846 63.258C223.184 63.9026 222.46 64.2625 221.7 64.2625C218.581 64.2625 216.052 58.2714 216.052 50.8826C216.052 44.8295 217.748 39.7214 220.076 38.0698Z" fill="#814C4A"/>
<path opacity="0.2" d="M223.673 41.0972C223.673 41.0972 223.736 41.3403 223.848 41.7646C223.948 42.1865 224.088 42.7691 224.229 43.457C224.293 43.8055 224.381 44.1661 224.445 44.5594C224.521 44.9462 224.592 45.3526 224.658 45.7745C224.739 46.1898 224.778 46.6329 224.856 47.0678C224.912 47.5093 224.97 47.9573 225.025 48.4069C225.073 48.8597 225.12 49.311 225.164 49.7565C225.187 50.2053 225.246 50.6468 225.28 51.0792C225.303 51.5109 225.339 51.932 225.38 52.3359C225.408 52.7431 225.436 53.1282 225.462 53.4832C225.546 54.2061 225.564 54.8157 225.628 55.2547C225.677 55.6937 225.728 55.954 225.728 55.954C225.728 55.954 225.853 55.7378 226.028 55.3412C226.2 54.943 226.464 54.3702 226.646 53.6407C226.739 53.2775 226.845 52.8801 226.925 52.4526C226.99 52.0242 227.054 51.568 227.104 51.0923C227.144 50.6174 227.152 50.1188 227.156 49.6145C227.157 49.1103 227.097 48.5986 227.061 48.0854C226.987 47.5778 226.913 47.0678 226.805 46.5766C226.679 46.0878 226.569 45.6055 226.398 45.16C226.248 44.7071 226.068 44.2869 225.88 43.8985C225.701 43.5084 225.486 43.1633 225.295 42.8483C224.888 42.2298 224.484 41.7777 224.182 41.4946C223.876 41.2139 223.673 41.0972 223.673 41.0972Z" fill="white"/>
<path d="M317.099 207.242H41.9546V221.255H317.099V207.242Z" fill="#5D93F4"/>
<path d="M329.627 211.053C329.627 213.15 327.894 214.865 325.774 214.865H33.2809C31.1617 214.865 29.4272 213.15 29.4272 211.053C29.4272 208.957 31.1617 207.242 33.2809 207.242H325.774C327.894 207.242 329.627 208.956 329.627 211.053Z" fill="#2D80E2"/>
<path d="M263.49 203.868C263.49 205.731 261.767 207.242 259.645 207.242H106.448C104.326 207.242 102.606 205.731 102.606 203.868C102.606 202.006 104.326 200.493 106.448 200.493H259.645C261.768 200.493 263.49 202.006 263.49 203.868Z" fill="#184A7C"/>
<path d="M251.347 195.202C251.347 198.72 248.069 201.6 244.062 201.6H122.034C118.026 201.6 114.748 198.721 114.748 195.202V136.509C114.748 132.991 118.026 130.113 122.034 130.113H244.062C248.068 130.113 251.347 132.99 251.347 136.509V195.202Z" fill="#1D5393"/>
<path d="M188.436 165.359C188.436 167.972 186.022 170.091 183.048 170.091C180.071 170.091 177.659 167.972 177.659 165.359C177.659 162.748 180.071 160.628 183.048 160.628C186.023 160.628 188.436 162.747 188.436 165.359Z" fill="#5D93F4"/>
<path opacity="0.6" d="M244.062 130.113H217.78C216.242 173.544 148.917 193.998 118.911 200.968C119.86 201.367 120.916 201.599 122.033 201.599H244.062C248.068 201.599 251.347 198.72 251.347 195.202V136.508C251.347 132.991 248.068 130.113 244.062 130.113Z" fill="#023047"/>
<path d="M72.4464 205.774C71.7911 205.774 71.1341 205.72 70.49 205.614C63.4181 204.44 59.0443 197.075 60.7386 189.192C62.2758 182.048 68.1404 176.863 74.6844 176.863C75.3396 176.863 75.9967 176.916 76.6399 177.023C83.7127 178.196 88.0865 185.563 86.3922 193.445C84.855 200.588 78.9894 205.774 72.4464 205.774ZM74.6844 180.86C70.398 180.86 66.3253 184.762 65.2128 189.935C63.9841 195.65 66.7305 200.921 71.3357 201.685C71.701 201.746 72.0737 201.776 72.4464 201.776C76.7328 201.776 80.8055 197.876 81.918 192.703C83.1467 186.985 80.4003 181.715 75.796 180.952C75.4298 180.891 75.0562 180.86 74.6844 180.86Z" fill="#EB7547"/>
<path d="M72.0674 173.489H37.8985C37.8985 173.489 33.3453 197.02 46.8525 207.241H54.1586H55.8074H63.1135C76.6215 197.02 72.0674 173.489 72.0674 173.489Z" fill="#EB7547"/>
<path opacity="0.1" d="M55.807 207.242H63.1131C76.6212 197.021 72.0671 173.49 72.0671 173.49H62.9784C60.3165 182.201 54.3785 195.639 42.0703 202.084C43.3362 204.005 44.8994 205.764 46.8521 207.242H54.1582H55.807Z" fill="#114068"/>
<path d="M49.6742 171.023C49.6742 171.023 45.0039 168.287 46.1359 164.561C47.2689 160.833 52.7552 154.078 47.8172 149.524C47.8172 149.524 55.7609 153.252 53.2134 158.596C50.6649 163.94 47.5514 166.177 49.6742 171.023Z" fill="#CEDDF4"/>
<path d="M61.7948 165.856C61.7948 165.856 57.1245 163.12 58.2565 159.394C59.3895 155.666 64.8758 148.911 59.9378 144.357C59.9378 144.357 67.8815 148.086 65.3331 153.43C62.7855 158.771 59.6711 161.01 61.7948 165.856Z" fill="#CEDDF4"/>
<path d="M72.0675 173.487C72.0675 175.126 64.3645 176.453 54.8641 176.453C45.3636 176.453 37.6606 175.126 37.6606 173.487C37.6606 171.85 45.3636 170.522 54.8641 170.522C64.3645 170.523 72.0675 171.851 72.0675 173.487Z" fill="#F46C0F"/>
<path d="M39.9814 174.97C42.9565 175.855 48.5004 176.453 54.8641 176.453C61.2287 176.453 66.7717 175.855 69.7468 174.97C66.7717 174.086 61.2287 173.488 54.8641 173.488C48.5004 173.488 42.9574 174.086 39.9814 174.97Z" fill="#AF622E"/>
<path d="M249.34 45.2088L247.427 39.5278L245.513 45.2088L239.6 46.995L245.513 48.782L247.427 54.4622L249.34 48.782L255.254 46.995L249.34 45.2088Z" fill="white"/>
<path d="M278.821 37.1378L277.825 34.1733L276.826 37.1378L273.741 38.0689L276.826 39.0008L277.825 41.9661L278.821 39.0008L281.907 38.0689L278.821 37.1378Z" fill="white"/>
<path d="M298.789 101.443L296.577 94.8696L294.363 101.443L287.522 103.508L294.363 105.575L296.577 112.147L298.789 105.575L305.63 103.508L298.789 101.443Z" fill="white"/>
<path d="M248.424 96.0861L247.427 93.1216L246.43 96.0861L243.343 97.0188L246.43 97.9506L247.427 100.915L248.424 97.9506L251.511 97.0188L248.424 96.0861Z" fill="white"/>
<path d="M121.99 15.7124L118.913 6.56836L115.833 15.7124L106.314 18.5855L115.833 21.4619L118.913 30.6035L121.99 21.4619L131.507 18.5855L121.99 15.7124Z" fill="white"/>
<path d="M39.5737 69.5174L37.6619 63.8364L35.7473 69.5174L29.8335 71.3044L35.7473 73.0906L37.6619 78.7708L39.5737 73.0906L45.4885 71.3044L39.5737 69.5174Z" fill="white"/>
<path d="M112.193 96.0861L111.195 93.1216L110.197 96.0861L107.111 97.0188L110.197 97.9506L111.195 100.915L112.193 97.9506L115.279 97.0188L112.193 96.0861Z" fill="white"/>
<path d="M87.7471 135.794L85.8353 130.112L83.9216 135.794L78.0068 137.579L83.9216 139.366L85.8353 145.047L87.7471 139.366L93.6609 137.579L87.7471 135.794Z" fill="white"/>
<path d="M5.70101 150.737L4.582 147.41L3.46113 150.737L0 151.782L3.46113 152.826L4.582 156.152L5.70101 152.826L9.16214 151.782L5.70101 150.737Z" fill="#E3EDFC"/>
<path d="M368.457 143.219L366.502 137.41L364.546 143.219L358.497 145.047L364.546 146.872L366.502 152.683L368.457 146.872L374.505 145.047L368.457 143.219Z" fill="#E3EDFC"/>
</svg>
