<svg width="242" height="248" viewBox="0 0 242 248" fill="none" xmlns="http://www.w3.org/2000/svg">
<path d="M67 132H59V159.5V187H67V132Z" fill="#2E3535"/>
<path d="M110.563 71.2412H20.4973C10.5134 71.2412 2.41992 79.9367 2.41992 90.6632V138.616H110.563V71.2412Z" fill="#40916C"/>
<path d="M109.443 71.2412C99.1056 71.2412 90.7256 80.2445 90.7256 91.3506V138.616H128.159V91.3506C128.16 80.2445 119.78 71.2412 109.443 71.2412Z" fill="#36805C"/>
<path d="M71.1162 103.891C73.7668 103.891 75.9156 101.582 75.9156 98.7344C75.9156 95.8867 73.7668 93.5781 71.1162 93.5781C68.4656 93.5781 66.3169 95.8867 66.3169 98.7344C66.3169 101.582 68.4656 103.891 71.1162 103.891Z" fill="#2E3535"/>
<path d="M106.014 124.944L102.812 125.621L103.164 127.546L106.367 126.868L106.014 124.944Z" fill="#F5C09A"/>
<path d="M102.709 130.945L101.537 125.877C101.532 125.856 101.544 125.836 101.563 125.83L101.947 125.729L103.136 130.871L102.753 130.973C102.734 130.978 102.714 130.966 102.709 130.945Z" fill="#C2CAD4"/>
<path d="M102.995 130.91C102.991 130.901 102.988 130.891 102.986 130.881L101.812 125.809C101.809 125.794 101.807 125.781 101.807 125.767C101.801 125.66 101.867 125.559 101.968 125.532L103.553 125.109C103.773 125.051 103.976 125.251 103.94 125.493C103.846 126.13 103.99 126.723 104.41 127.265C104.465 127.334 104.473 127.431 104.433 127.51L104.301 127.763L104.296 127.771L104.277 127.81C104.254 127.854 104.232 127.9 104.212 127.946C104.21 127.95 104.208 127.956 104.206 127.96C104.109 128.187 104.05 128.431 104.035 128.678C104.034 128.685 104.034 128.694 104.034 128.702C104.031 128.756 104.03 128.811 104.032 128.865C104.032 128.877 104.033 128.888 104.032 128.9C104.032 128.901 104.032 128.901 104.032 128.902C104.055 130.2 103.473 130.796 103.219 130.979C103.138 131.037 103.033 130.999 102.995 130.91Z" fill="#38434D"/>
<path d="M103.903 128.067C103.868 128.079 103.828 128.059 103.816 128.019L103.814 128.012C103.808 127.975 103.827 127.938 103.861 127.925L104.172 127.815L104.296 127.771L104.277 127.81C104.254 127.855 104.233 127.9 104.212 127.946C104.21 127.95 104.208 127.956 104.206 127.961L103.903 128.067Z" fill="#E0E3E8"/>
<path d="M104.211 127.946L104.17 127.815L104.068 127.482C104.067 127.479 104.066 127.477 104.066 127.474C104.059 127.437 104.078 127.4 104.112 127.387C104.148 127.374 104.187 127.396 104.199 127.434L104.3 127.762L104.295 127.77L104.276 127.809C104.253 127.853 104.231 127.899 104.211 127.946ZM104.031 128.901L103.787 129.132C103.759 129.159 103.714 129.156 103.689 129.126C103.684 129.12 103.681 129.114 103.678 129.107C103.666 129.078 103.672 129.044 103.695 129.021L103.94 128.788L104.032 128.701C104.029 128.755 104.028 128.81 104.03 128.863C104.03 128.875 104.031 128.887 104.03 128.897V128.901H104.031Z" fill="#E0E3E8"/>
<path d="M104.031 128.899L103.94 128.788L103.723 128.525C103.718 128.519 103.714 128.513 103.711 128.506C103.7 128.477 103.706 128.443 103.729 128.42C103.757 128.392 103.801 128.395 103.827 128.426L104.033 128.677C104.033 128.684 104.032 128.694 104.032 128.701C104.029 128.755 104.028 128.81 104.03 128.864C104.031 128.876 104.031 128.888 104.031 128.899Z" fill="#E0E3E8"/>
<path d="M121.041 133.87L120.994 137.376L122.819 137.405L122.866 133.898L121.041 133.87Z" fill="#F5C09A"/>
<path d="M125.82 138.615H120.96C120.94 138.615 120.924 138.597 120.924 138.577V138.152H125.857V138.577C125.856 138.597 125.841 138.615 125.82 138.615Z" fill="#C2CAD4"/>
<path d="M125.857 138.309C125.847 138.312 125.837 138.313 125.828 138.313H120.963C120.95 138.313 120.937 138.312 120.925 138.308C120.826 138.289 120.751 138.196 120.751 138.084V136.329C120.751 136.086 120.983 135.924 121.191 136.018C121.744 136.27 122.314 136.262 122.905 135.956C122.981 135.916 123.071 135.93 123.133 135.991L123.329 136.189L123.336 136.196L123.366 136.226C123.401 136.262 123.437 136.295 123.473 136.327C123.477 136.33 123.481 136.335 123.485 136.338C123.666 136.494 123.871 136.613 124.092 136.689C124.099 136.691 124.107 136.694 124.113 136.696C124.161 136.713 124.211 136.727 124.259 136.738C124.27 136.74 124.281 136.743 124.29 136.746C124.291 136.746 124.291 136.746 124.292 136.746C125.47 137.035 125.869 137.785 125.973 138.095C126.007 138.191 125.948 138.292 125.857 138.309Z" fill="#38434D"/>
<path d="M123.508 136.677C123.511 136.717 123.482 136.753 123.444 136.757H123.437C123.402 136.756 123.373 136.726 123.37 136.688L123.345 136.338L123.335 136.197L123.364 136.227C123.399 136.263 123.435 136.296 123.471 136.328C123.475 136.331 123.479 136.336 123.483 136.338L123.508 136.677Z" fill="#E0E3E8"/>
<path d="M123.473 136.327L123.345 136.338L123.019 136.365C123.016 136.366 123.013 136.366 123.011 136.366C122.976 136.364 122.947 136.334 122.945 136.297C122.942 136.256 122.97 136.221 123.008 136.217L123.328 136.191L123.335 136.198L123.364 136.228C123.4 136.262 123.435 136.295 123.473 136.327ZM124.292 136.745L124.443 137.056C124.46 137.093 124.448 137.137 124.413 137.156C124.406 137.159 124.4 137.162 124.394 137.163C124.365 137.169 124.335 137.154 124.32 137.124L124.169 136.813L124.112 136.695C124.16 136.712 124.209 136.725 124.258 136.737C124.269 136.739 124.279 136.742 124.289 136.745H124.292Z" fill="#E0E3E8"/>
<path d="M124.29 136.744L124.169 136.812L123.879 136.974C123.872 136.977 123.866 136.98 123.86 136.981C123.831 136.987 123.801 136.972 123.786 136.942C123.768 136.905 123.781 136.861 123.815 136.842L124.092 136.687C124.099 136.689 124.106 136.692 124.113 136.694C124.161 136.711 124.211 136.724 124.259 136.736C124.27 136.739 124.281 136.741 124.29 136.744Z" fill="#E0E3E8"/>
<path d="M117.961 110.173L119.233 110.447L123.381 118.257C124.415 120.206 124.833 122.463 124.573 124.69L123.374 134.906H120.465L120.931 122.878L116.291 116.051V121.16C116.291 123.543 114.72 125.592 112.544 126.049L105.255 127.58L104.74 124.884L112.204 122.268L111.198 110.448L114.678 110.061L117.961 110.173Z" fill="#38434D"/>
<path d="M109.355 95.006L111.181 98.231L113.418 97.711L114.29 97.5093C114.555 97.9991 114.988 98.3766 115.028 98.4109L115.213 98.2113V111.239C113.532 111.267 111.933 111.102 111.308 110.989C111.07 110.945 110.895 110.728 110.891 110.469C110.888 110.237 111.059 103.387 110.868 101.967C110.868 101.967 105.665 97.5654 107.306 93.5229L109.355 95.006Z" fill="#FCB614"/>
<path d="M110.767 90.0556L111.147 89.4306C111.22 89.3089 111.34 89.2278 111.473 89.2091L112.018 89.13C112.102 89.1176 112.167 89.0458 112.177 88.9553C112.189 88.8368 112.102 88.7338 111.991 88.7348L111.479 88.7411C111.479 88.7411 112.472 87.0781 111.493 87.2778C111.493 87.2778 111.429 86.7204 111.025 87.1728C111.025 87.1728 110.88 86.607 110.546 87.0646C110.546 87.0646 110.392 86.6174 110.124 87.0355C110.064 87.1301 110.019 87.2352 109.991 87.3464L109.428 89.4992L110.767 90.0556Z" fill="#F5C09A"/>
<path d="M109.424 88.9326L107.308 93.5211C107.308 93.5211 107.288 94.7712 109.356 95.0062L111.329 89.462L109.424 88.9326Z" fill="#FCB614"/>
<path d="M124.888 92.5975L124.995 91.8601C125.015 91.7166 124.977 91.571 124.89 91.4608L124.534 91.0105C124.479 90.9408 124.475 90.8409 124.524 90.7661C124.589 90.6693 124.718 90.6548 124.8 90.7349L125.178 91.1061C125.178 91.1061 125.473 89.1561 126.077 90.0069C126.077 90.0069 126.472 89.6387 126.491 90.2648C126.491 90.2648 126.951 89.9476 126.915 90.5279C126.915 90.5279 127.307 90.3053 127.247 90.8097C127.234 90.9231 127.2 91.0333 127.153 91.1363L126.235 93.1425L124.888 92.5975Z" fill="#F5C09A"/>
<path d="M116.312 95.4624H114.108V98.6396H116.312V95.4624Z" fill="#F5C09A"/>
<path d="M115.26 91.915L116.593 92.2021C116.593 92.2021 118.201 94.7938 116.816 96.1C116.288 96.5982 115.526 96.7053 114.882 96.4016C114.537 96.2383 114.177 95.9534 113.941 95.4604L113.498 93.1464L115.26 91.915Z" fill="#F5C09A"/>
<path d="M114.108 96.5651L114.384 95.4918C114.384 95.4918 113.914 95.0966 114.091 94.5901C114.172 94.3613 114.391 94.2074 114.612 94.2594C114.801 94.3041 114.957 94.6067 115.027 94.8106L115.275 94.7128C115.275 94.7128 114.66 91.9319 116.642 92.2875C116.642 92.2875 117.154 91.9402 116.708 91.3807C116.708 91.3807 117 90.3615 115.693 90.7452C115.693 90.7452 115.235 90.3261 114.436 91.0791C114.436 91.0791 113.011 90.2169 112.615 92.2116C112.615 92.2116 111.251 93.9079 113.177 95.4762C113.263 95.5469 113.357 95.6072 113.451 95.6655C113.581 95.7424 113.955 96.0939 114.108 96.5651Z" fill="#343333"/>
<path d="M115.031 98.4133L114.617 98.8584L114.438 99.0508C113.663 98.249 113.413 97.7165 113.413 97.7165L113.417 97.7124L114.108 97.0728C114.143 97.2236 114.214 97.3712 114.29 97.5096C114.555 97.9994 114.988 98.3769 115.027 98.4112C115.03 98.4123 115.031 98.4133 115.031 98.4133Z" fill="#EDA720"/>
<path d="M119.071 101.966C119.209 103.476 119.538 110.469 119.534 110.845C119.512 110.851 117.597 111.278 115.214 111.239V98.2105L115.4 98.4102C115.441 98.3759 115.873 97.9984 116.138 97.5085L117.01 97.7103L119.247 98.2303C119.769 98.3509 120.564 98.5974 121.49 99.0498C121.818 99.21 124.791 91.7012 124.791 91.7012L126.759 92.6101L124.26 100.101C123.025 103.905 119.071 101.966 119.071 101.966Z" fill="#FCB614"/>
<path d="M115.397 98.4133L115.812 98.8584L115.99 99.0508C116.764 98.249 117.015 97.7165 117.015 97.7165L117.01 97.7124L116.312 97.0728C116.276 97.2236 116.213 97.3712 116.139 97.5096C115.874 97.9994 115.441 98.3769 115.401 98.4112C115.398 98.4123 115.397 98.4133 115.397 98.4133Z" fill="#EDA720"/>
<path d="M114.139 108.342L115.214 110.06L116.29 108.342L115.574 99.1132L115.811 98.8584L115.814 98.8553L115.214 98.2104L114.614 98.8553L114.617 98.8584L114.854 99.1132L114.139 108.342Z" fill="#EB7547"/>
<path d="M190.816 70.5316L167.966 86.3251L163.394 74.7176L159.978 80.8536L159.119 70.0865L154.659 67.2192L190.816 70.5316Z" fill="#ECECE8"/>
<path d="M190.816 70.5315L159.119 70.0864L159.978 80.8535L163.394 74.7175L190.816 70.5315Z" fill="#E2E2E2"/>
<path d="M165.125 79.1097L159.979 80.8538L163.395 74.7178L165.125 79.1097Z" fill="#D5D6D5"/>
<path d="M239.58 34.5083L225.292 59.3362L216.512 50.9767L215.889 58.0965L210.797 48.7771L205.622 48.254L239.58 34.5083Z" fill="#ECECE8"/>
<path d="M219.835 54.1402L215.889 58.0964L216.512 50.9766L219.835 54.1402Z" fill="#D5D6D5"/>
<path d="M101.264 25.9521H71.1172V45.0299H101.264V25.9521Z" fill="#EB7547"/>
<path d="M71.8244 99.2711L70.5931 99.2742L70.4092 24.7666C70.4082 24.4015 70.6831 24.1041 71.0229 24.103C71.3627 24.102 71.6395 24.3974 71.6405 24.7624L71.8244 99.2711Z" fill="#2E3535"/>
</svg>
